<svg data-name="圖層 1" xmlns="http://www.w3.org/2000/svg" viewBox="0 0 33.85 33.85"><path d="M30.55 17.91l-6.15 1.65-2.4-1.37v-2.57l2.35-1.35 6.18 1.66a1.44 1.44 0 00.74-2.78l-3.39-.91L31 10.45A1.44 1.44 0 1029.6 8l-3.13 1.8.91-3.39a1.44 1.44 0 10-2.78-.75L23 11.77l-2.36 1.36-2.24-1.29V9.12l4.48-4.52a1.44 1.44 0 10-2-2l-2.53 2.45V1.44a1.44 1.44 0 00-2.88 0V5L13 2.56a1.44 1.44 0 10-2 2l4.48 4.54v2.74l-2.22 1.28-2.36-1.35-1.65-6.15a1.44 1.44 0 10-2.78.75l.91 3.39L4.25 8a1.44 1.44 0 10-1.43 2.49l3.12 1.79-3.39.91a1.44 1.44 0 10.74 2.78l6.18-1.66 2.34 1.35v2.57l-2.36 1.33-6.16-1.65a1.44 1.44 0 10-.74 2.78l3.38.91-3.12 1.8a1.44 1.44 0 00.72 2.68 1.41 1.41 0 00.72-.19l3.13-1.81-.91 3.4a1.44 1.44 0 001 1.76 1.42 1.42 0 00.37 0 1.44 1.44 0 001.39-1.07L10.9 22l2.36-1.36L15.48 22v2.78L11 29.25a1.44 1.44 0 002 2l2.47-2.47v3.6a1.44 1.44 0 002.88 0v-3.59l2.49 2.49a1.44 1.44 0 102-2l-4.52-4.52V22l2.24-1.29L22.94 22l1.66 6.18a1.44 1.44 0 102.78-.74l-.91-3.4 3.13 1.81a1.42 1.42 0 00.72.19 1.44 1.44 0 00.68-2.65l-3.12-1.8 3.38-.91a1.44 1.44 0 00-.74-2.78zm-11.41.28l-2.23 1.29-2.21-1.29v-2.57l2.23-1.28 2.23 1.29z"/></svg>