<svg data-name="圖層 1" xmlns="http://www.w3.org/2000/svg" viewBox="0 0 33.05 33.05"><path d="M26.69 21.51a14.62 14.62 0 00-1.27-4.62A17.76 17.76 0 0023 13c-.28-.34-.56-.66-.7-.81l-.3-.35-.22-.24-.1-.1c-.11-.11-.22-.22-.32-.34l-.21-.16a3.08 3.08 0 01-.22-.24c-.51-.56-.94-1.07-1.31-1.56a10.39 10.39 0 01-1-1.54 7.09 7.09 0 01-.66-1.87 11.43 11.43 0 01-.23-2.09 17.66 17.66 0 01.06-1.91c0-.37.07-.69.1-1A.68.68 0 0017 0a7.7 7.7 0 00-1 .33 9 9 0 00-2 1.17 9.6 9.6 0 00-2.17 2.32 10.14 10.14 0 00-1.53 3.8 12 12 0 00.09 4.73 14.42 14.42 0 001.83 4.47 16.14 16.14 0 001.34 1.87l.49.59.14.16.25.29.19.21c.68.82 1.16 1.42 1.56 1.95S17 23 17.38 23.63a9.8 9.8 0 01.85 1.7 8 8 0 01.45 2 11.79 11.79 0 010 2.12c-.06.73-.18 1.4-.27 1.88-.07.33-.13.64-.19.91a.68.68 0 00.67.83H19a7.19 7.19 0 001-.27 9.12 9.12 0 002.09-1 9.65 9.65 0 002.34-2.1 10.56 10.56 0 001.86-3.54 12 12 0 00.4-4.65zM13.29 25.69a8.1 8.1 0 00-1.1-1.76l-.32-.37-.16-.17-.1-.11-.14-.15-.13-.13-.1-.11c-.23-.25-.42-.48-.59-.7a4.94 4.94 0 01-.46-.71 3.25 3.25 0 01-.3-.85 5.25 5.25 0 01-.1-1 7.55 7.55 0 010-.76.68.68 0 00-1-.67 4.3 4.3 0 00-.74.45 4.38 4.38 0 00-1 1.06 4.62 4.62 0 00-.7 1.72 5.46 5.46 0 000 2.16 6.59 6.59 0 00.84 2 7.42 7.42 0 00.61.84l.24.28.06.07.12.13.08.09c.21.25.48.58.71.89s.38.53.54.79a4.42 4.42 0 01.39.78 3.67 3.67 0 01.2.91 5.38 5.38 0 010 1c0 .22 0 .44-.09.7a.68.68 0 00.93.75 4.29 4.29 0 00.7-.36 4.4 4.4 0 001.07-1 4.82 4.82 0 00.85-1.62 5.56 5.56 0 00.2-2.12 6.7 6.7 0 00-.51-2.03z"/></svg>